<?xml version="1.0" encoding="utf-8"?>
<!-- Generator: Adobe Illustrator 16.0.0, SVG Export Plug-In . SVG Version: 6.00 Build 0)  -->
<!DOCTYPE svg PUBLIC "-//W3C//DTD SVG 1.1//EN" "http://www.w3.org/Graphics/SVG/1.1/DTD/svg11.dtd">
<svg version="1.1" id="Layer_1" xmlns="http://www.w3.org/2000/svg" xmlns:xlink="http://www.w3.org/1999/xlink" x="0px" y="0px"
	 width="33px" height="39px" viewBox="0 0 33 39" enable-background="new 0 0 33 39" xml:space="preserve">
<path fill="#FFFFFF" d="M7.135,1.828c-2.792,0-5.054,2.319-5.054,5.18v30.164h17.243V7.008c0-2.861-2.263-5.18-5.054-5.18H7.135z
	 M21.107,37.172h0.298V39H0v-1.828h0.297V7.008C0.297,3.138,3.359,0,7.135,0h7.135c3.776,0,6.837,3.138,6.837,7.008v8.908
	c2.697,0.438,4.758,2.831,4.758,5.717v9.141c0,1.515,1.197,2.742,2.676,2.742c1.477,0,2.676-1.228,2.676-2.742V17.328
	c0-3.827-0.914-7.595-2.661-10.977l-2.587-5.009l1.576-0.855l2.588,5.009C32.016,9.141,33,13.203,33,17.328v13.446
	c0,2.524-1.996,4.57-4.459,4.57s-4.46-2.046-4.46-4.57v-9.141c0-1.873-1.269-3.442-2.974-3.855V37.172z M16.054,17.672H5.946v-1.828
	h10.108V17.672z"/>
</svg>
