<?xml version="1.0" encoding="utf-8"?>
<!-- Generator: Adobe Illustrator 16.0.0, SVG Export Plug-In . SVG Version: 6.00 Build 0)  -->
<!DOCTYPE svg PUBLIC "-//W3C//DTD SVG 1.1//EN" "http://www.w3.org/Graphics/SVG/1.1/DTD/svg11.dtd">
<svg version="1.1" id="Layer_1" xmlns="http://www.w3.org/2000/svg" xmlns:xlink="http://www.w3.org/1999/xlink" x="0px" y="0px"
	 width="59px" height="22px" viewBox="0 0 59 22" enable-background="new 0 0 59 22" xml:space="preserve">
<g>
	<rect x="3.041" y="5.958" fill="#FFFFFF" width="8.516" height="1.882"/>
	<rect x="3.041" y="15.994" fill="#FFFFFF" width="8.516" height="1.881"/>
	<rect y="10.976" fill="#FFFFFF" width="12.165" height="1.881"/>
	<path fill="#FFFFFF" d="M58.161,9.683l-1.132-1c-2.217-1.96-5.043-3.038-7.964-3.038c-1.021,0-2.011-0.364-2.802-1.031
		l-1.619-1.366C42.156,1.147,39.039,0,35.822,0h-2.318c-3.117,0-6.19,0.748-8.977,2.185l-6.166,3.179
		c-2.679,1.381-4.371,4.205-4.371,7.293v0.515c0,3.047,2.342,5.531,5.271,5.641C20.118,20.932,22.139,22,24.047,22
		c1.906,0,3.92-1.065,4.758-3.184h14.779c1.748,4.402,8.44,4.166,9.706-0.627h0.234c3.023,0,5.475-2.527,5.475-5.646v-0.979
		C59,10.841,58.693,10.153,58.161,9.683z M57.176,12.544c0,2.079-1.635,3.764-3.65,3.764h-1.824l-0.04,0.574
		c-0.292,4.228-6.295,4.274-6.651,0.053H27.371c-0.298,4.247-6.333,4.243-6.691,0h-1.216c-2.016,0-3.649-1.685-3.649-3.763v-0.515
		c0-2.375,1.302-4.547,3.362-5.61l6.166-3.179c2.534-1.307,5.328-1.986,8.161-1.986h2.318c2.795,0,5.504,0.997,7.668,2.822
		l1.619,1.366c1.115,0.941,2.514,1.456,3.956,1.456c2.485,0,4.89,0.917,6.776,2.585l1.132,1c0.128,0.113,0.202,0.278,0.202,0.453
		V12.544z"/>
</g>
</svg>
