<svg width="30" height="50" viewBox="0 0 30 50" fill="none" xmlns="http://www.w3.org/2000/svg">
<path fill-rule="evenodd" clip-rule="evenodd" d="M30 41L0 41L1.68121e-07 39L30 39V41Z" fill="#808080"/>
<path fill-rule="evenodd" clip-rule="evenodd" d="M20 8H10V6H20V8Z" fill="#808080"/>
<path fill-rule="evenodd" clip-rule="evenodd" d="M18 46H12V44H18V46Z" fill="#808080"/>
<path fill-rule="evenodd" clip-rule="evenodd" d="M2 2V48H28V2H2ZM1 0C0.447715 0 1.68121e-07 0.447714 1.68121e-07 0.999999V49C1.68121e-07 49.5523 0.447716 50 1 50H29C29.5523 50 30 49.5523 30 49V1C30 0.447715 29.5523 0 29 0H1Z" fill="#808080"/>
</svg>
