<svg width="27" height="40" viewBox="0 0 27 40" fill="none" xmlns="http://www.w3.org/2000/svg">
<path fill-rule="evenodd" clip-rule="evenodd" d="M13.5 40C13.5 40 13.0364 39.359 12.281 38.2636C8.96018 33.448 0 19.8508 0 13.3333C0 5.86667 5.94 0 13.5 0C21.06 0 27 5.86667 27 13.3333C27 19.8508 18.0398 33.448 14.719 38.2636C13.9636 39.359 13.5 40 13.5 40ZM13.5 36.505C13.6434 36.2949 13.7942 36.0727 13.9517 35.8394C15.2033 33.9851 16.8691 31.4348 18.5317 28.6433C20.1982 25.8452 21.8405 22.8397 23.0601 20.0692C24.3098 17.2304 25 14.8894 25 13.3333C25 6.99459 19.9789 2 13.5 2C7.02107 2 2 6.99459 2 13.3333C2 14.8894 2.69019 17.2304 3.93986 20.0692C5.15949 22.8397 6.80182 25.8452 8.46832 28.6433C10.1309 31.4348 11.7967 33.9851 13.0483 35.8394C13.2058 36.0727 13.3567 36.2949 13.5 36.505Z" fill="#808080"/>
<path fill-rule="evenodd" clip-rule="evenodd" d="M8.09829 18.9017C6.71023 17.5137 6 15.6045 6 13.5C6 11.3955 6.71023 9.48634 8.09829 8.09829C9.48635 6.71023 11.3955 6 13.5 6C15.6045 6 17.5137 6.71023 18.9017 8.09829C20.2898 9.48635 21 11.3955 21 13.5C21 15.6045 20.2898 17.5137 18.9017 18.9017C17.5137 20.2898 15.6045 21 13.5 21C11.3955 21 9.48635 20.2898 8.09829 18.9017ZM13.5 19C10.2 19 8 16.8 8 13.5C8 10.2 10.2 8 13.5 8C16.8 8 19 10.2 19 13.5C19 16.8 16.8 19 13.5 19Z" fill="#808080"/>
</svg>
