<?xml version="1.0" encoding="utf-8"?>
<!-- Generator: Adobe Illustrator 16.0.0, SVG Export Plug-In . SVG Version: 6.00 Build 0)  -->
<!DOCTYPE svg PUBLIC "-//W3C//DTD SVG 1.1//EN" "http://www.w3.org/Graphics/SVG/1.1/DTD/svg11.dtd">
<svg version="1.1" id="Layer_1" xmlns="http://www.w3.org/2000/svg" xmlns:xlink="http://www.w3.org/1999/xlink" x="0px" y="0px"
	 width="47px" height="37px" viewBox="0 0 47 37" enable-background="new 0 0 47 37" xml:space="preserve">
<path fill="#FFFFFF" d="M43.385,8.633c1.996,0,3.615-1.657,3.615-3.7V3.7C47,1.657,45.381,0,43.385,0H32.539
	c-1.998,0-3.615,1.657-3.615,3.7v1.233c0,2.043,1.617,3.7,3.615,3.7h3.916V11.1h-3.916v6.475H20.487v-0.309l-1.971-0.576
	c-1.464-0.428-2.769-1.297-3.744-2.495c-0.961-1.18-2.384-1.862-3.885-1.862H9.34v-3.7h5.122c1.997,0,3.615-1.657,3.615-3.7V3.7
	c0-2.043-1.618-3.7-3.615-3.7H3.615C1.619,0,0,1.657,0,3.7v1.233c0,2.043,1.619,3.7,3.615,3.7h3.917v3.7H3.615v12.333h3.917v3.701
	H3.615C1.619,28.367,0,30.023,0,32.066V33.3C0,35.344,1.619,37,3.615,37h10.846c1.997,0,3.615-1.656,3.615-3.7v-1.233
	c0-2.043-1.618-3.699-3.615-3.699H9.34v-3.701h1.548c1.501,0,2.924-0.682,3.885-1.861c0.975-1.197,2.279-2.066,3.744-2.495
	l1.971-0.576v-0.309h12.052V25.9h3.916v2.467h-3.916c-1.998,0-3.615,1.656-3.615,3.699V33.3c0,2.044,1.617,3.7,3.615,3.7h10.846
	C45.381,37,47,35.344,47,33.3v-1.233c0-2.043-1.619-3.699-3.615-3.699h-5.122V25.9h3.917V11.1h-3.917V8.633H43.385z M1.808,4.934
	V3.7c0-1.022,0.81-1.85,1.808-1.85h10.846c0.999,0,1.808,0.828,1.808,1.85v1.233c0,1.021-0.809,1.85-1.808,1.85H3.615
	C2.617,6.783,1.808,5.955,1.808,4.934z M16.269,32.066V33.3c0,1.022-0.809,1.851-1.808,1.851H3.615
	c-0.998,0-1.808-0.828-1.808-1.851v-1.233c0-1.021,0.81-1.85,1.808-1.85h10.846C15.46,30.217,16.269,31.045,16.269,32.066z
	 M18.02,18.531c-1.813,0.53-3.429,1.606-4.636,3.089c-0.618,0.758-1.532,1.196-2.497,1.196H5.423v-8.633h5.465
	c0.964,0,1.879,0.439,2.497,1.197c1.207,1.483,2.823,2.559,4.636,3.089l0.105,0.031L18.02,18.531z M45.192,32.066V33.3
	c0,1.022-0.81,1.851-1.808,1.851H32.539c-0.999,0-1.809-0.828-1.809-1.851v-1.233c0-1.021,0.81-1.85,1.809-1.85h10.846
	C44.383,30.217,45.192,31.045,45.192,32.066z M40.371,24.05h-6.025v-11.1h6.025V24.05z M30.73,4.934V3.7
	c0-1.022,0.81-1.85,1.809-1.85h10.846c0.998,0,1.808,0.828,1.808,1.85v1.233c0,1.021-0.81,1.85-1.808,1.85H32.539
	C31.54,6.783,30.73,5.955,30.73,4.934z"/>
</svg>
