<svg width="110" height="38" viewBox="0 0 110 38" fill="none" xmlns="http://www.w3.org/2000/svg">
<path d="M90.9689 33.7474C87.587 33.7474 84.4697 32.6044 81.977 30.6884C84.5066 27.4626 86.0208 23.4057 86.0208 19C86.0208 14.5947 84.5066 10.5378 81.977 7.31158C84.4697 5.396 87.587 4.25258 90.9689 4.25258C99.1138 4.25258 105.74 10.8684 105.74 19C105.74 27.132 99.1138 33.7474 90.9689 33.7474ZM57.9974 30.6884C60.5274 27.4626 62.0415 23.4057 62.0415 19C62.0415 14.5947 60.5274 10.5378 57.9978 7.31158C60.4901 5.396 63.6082 4.25258 66.9896 4.25258C70.3715 4.25258 73.4888 5.396 75.9815 7.31158C73.4518 10.5378 71.9377 14.5947 71.9377 19C71.9377 23.4057 73.4518 27.4626 75.9815 30.6884C73.4888 32.6044 70.3715 33.7474 66.9896 33.7474C63.6082 33.7474 60.4901 32.6044 57.9974 30.6884ZM34.0182 30.6884C36.5482 27.4626 38.0623 23.4057 38.0623 19C38.0623 14.5947 36.5482 10.5378 34.0185 7.31158C36.5109 5.396 39.6289 4.25258 43.0104 4.25258C46.3918 4.25258 49.5099 5.396 52.0022 7.31158C49.4726 10.5378 47.9585 14.5947 47.9585 19C47.9585 23.4057 49.4726 27.4626 52.0022 30.6884C49.5099 32.6044 46.3918 33.7474 43.0104 33.7474C39.6289 33.7474 36.5109 32.6044 34.0182 30.6884ZM4.25955 19C4.25955 10.8684 10.8862 4.25258 19.0311 4.25258C22.4126 4.25258 25.5307 5.396 28.023 7.31158C25.4934 10.5378 23.9792 14.5947 23.9792 19C23.9792 23.4057 25.4934 27.4626 28.023 30.6884C25.5307 32.6044 22.4126 33.7474 19.0311 33.7474C10.8862 33.7474 4.25955 27.132 4.25955 19ZM31.0208 27.5983C29.2726 25.1758 28.2388 22.2072 28.2388 19C28.2388 15.7932 29.2726 12.8242 31.0208 10.4017C32.769 12.8242 33.8027 15.7932 33.8027 19C33.8027 22.2072 32.769 25.1758 31.0208 27.5983ZM55 27.5983C53.2518 25.1758 52.218 22.2072 52.218 19C52.218 15.7932 53.2518 12.8242 55 10.4017C56.7482 12.8242 57.782 15.7932 57.782 19C57.782 22.2072 56.7482 25.1758 55 27.5983ZM78.9792 27.5983C77.231 25.1758 76.1973 22.2072 76.1973 19C76.1973 15.7932 77.231 12.8242 78.9792 10.4017C80.7274 12.8242 81.7612 15.7932 81.7612 19C81.7612 22.2072 80.7274 25.1758 78.9792 27.5983ZM90.9689 0C86.4273 0 82.2541 1.59866 78.9792 4.25866C75.7044 1.59866 71.5312 0 66.9896 0C62.448 0 58.2749 1.59866 55 4.25866C51.7251 1.59866 47.5516 0 43.0104 0C38.4688 0 34.2956 1.59866 31.0208 4.25866C27.7459 1.59866 23.5724 0 19.0311 0C8.53737 0 0 8.5234 0 19C0 29.477 8.53737 38 19.0311 38C23.5724 38 27.7459 36.4017 31.0208 33.7413C34.2956 36.4017 38.4688 38 43.0104 38C47.5516 38 51.7251 36.4017 55 33.7413C58.2749 36.4017 62.448 38 66.9896 38C71.5312 38 75.7044 36.4017 78.9792 33.7413C82.2541 36.4017 86.4273 38 90.9689 38C101.463 38 110 29.477 110 19C110 8.5234 101.463 0 90.9689 0Z" fill="black"/>
</svg>
